<?xml version="1.0" encoding="utf-8"?>
<!-- Generator: Adobe Illustrator 19.0.0, SVG Export Plug-In . SVG Version: 6.00 Build 0)  -->
<svg version="1.1" id="Layer_1" xmlns="http://www.w3.org/2000/svg" xmlns:xlink="http://www.w3.org/1999/xlink" x="0px" y="0px"
	 width="502px" height="221px" viewBox="0 0 502 221" style="enable-background:new 0 0 502 221;" xml:space="preserve">
<style type="text/css">
	.st0{fill:#FFDE17;}
	.st1{fill:#39B54A;}
	.st2{fill:#3BB54A;}
</style>
<g id="XMLID_89_">
	<path id="XMLID_129_" class="st0" d="M26.7,139.3c0.1,0.4,0.1,1,0.1,1.7v2.7c0,0.3-0.2,0.7-0.7,1.1c-0.3,0.2-0.6,0.2-1,0.2
		c-0.7,0-1.4-0.2-2.3-0.7c-0.9-0.5-1.4-0.9-1.6-1.4l-0.1-0.2c-0.3,0.2-0.6,0.2-0.8,0.2c-0.2,0-0.5-0.1-1.1-0.4
		c-3.7-3.1-5.9-7.1-6.6-12.1c-0.1-0.2-0.1-0.5-0.1-0.9c0-0.5,0.1-0.9,0.2-1.2c-1-0.5-1.6-4.1-1.6-10.6c0-1.8,0.2-5.3,0.6-10.5
		l0.4-0.4c-0.7-1.6-1-3.2-1-5c0,0.2,0-0.2,0.1-1.3c0.1-1.8,0.2-3.6,0.3-5.5c0.1-1.5,0.6-2.6,1.3-3.2c-0.2-0.2-0.3-0.5-0.3-0.9
		l0.1-0.7l0.1-1c0.2-1.8,1.3-4.3,3.2-7.6l1.7-1v-0.1c0-1,0.8-1.9,2.3-2.8c1.5-0.9,3.2-1.3,5.1-1.3c1.1,0,1.7,0.7,1.7,2v1.4
		c0,2.3-0.4,3.6-1.1,3.8c0.5,0.1,0.9,0.3,1.1,0.8v4.5c0,0.6-0.1,1-0.3,1.3c-0.7,1-1.3,3.3-1.6,6.7c-0.2,0.5-0.6,0.8-1.1,0.9
		c0.7,0.7,1,2,1,3.9l-0.3,1.9v3.8v1.2v12.6c-0.2,0.6-0.4,1-0.6,1.3l-0.2,0.7c0.2,0.1,0.6,0.3,1.2,0.8c0.3,2,0.7,4.2,1.3,6.7
		c0.5,1.6,0.8,3.2,0.8,5c0,1.3-0.1,2-0.4,2.1c-0.8,0.2-1.1,0.4-1.1,0.8L26.7,139.3z M44.3,91.1c0.8,0.7,1.2,2.8,1.2,6.1
		c0,1.7-1,2.6-3.1,2.6H41l-1-0.3l-0.3-0.2L39,99.8h-5.2c-0.9-0.1-1.3-1.2-1.3-3.2V95c0.2-0.3,0.5-0.7,0.8-1.3c-0.6-0.3-1-1-1.2-2.1
		c-0.3-1.4-0.7-2.5-1.2-3.1c-0.1-0.2-0.1-0.6-0.1-1c0-0.9,0-1.9,0.1-3.1l1-1c-1.1-0.5-1.7-1.8-1.7-3.8c0-2.4,0.8-3.6,2.5-3.6
		c1.5,0,2.9,0.3,4.2,1c0.1,0.6,0.2,1,0.2,1.2v0.3c0.5-0.4,0.9-0.6,1.2-0.6c0.7,0,1.6,0.7,2.7,2.2l0.6,0.4l0.4,0.7
		c1.3,2.1,2.3,4.9,3,8.4C44.7,90.3,44.5,90.8,44.3,91.1z M46,120.9c0,0.2,0,0.4,0.1,0.9c0,0.4,0,0.7,0,0.9c0,2.6-0.5,5.2-1.4,7.9
		l-0.4,0.3l0.4,0.4v0.8c0,1.2-0.2,2.3-0.6,3.5c-2.5,5.1-4.5,7.6-6.1,7.6c-0.4,0-0.7-0.1-1.1-0.3c-0.3,0.8-0.9,1.4-1.7,1.7
		c-0.8,0.3-1.7,0.5-2.7,0.5c-0.7,0-1.4-0.3-1.9-0.8c0.1-1,0.2-1.8,0.2-2.2c0-0.5-0.1-1.2-0.2-2.1c0-0.4,0.4-0.7,1.3-0.9
		c-0.9-0.8-1.3-1.8-1.3-3.1V134c1.8-5.2,2.8-8,3-8.3c0,0.1,0,0.3-0.1,0.6c-0.3-0.3-0.5-0.6-0.7-0.9c0-0.3,0-0.7,0-1.1
		c0-0.4,0-0.8,0-1c0-2.5,0.6-3.7,1.9-3.7h4l1.3,0.8l0.2,0.1c0.4-0.6,1-0.9,1.7-0.9h2.9C45.6,119.7,46,120.1,46,120.9z"/>
	<path id="XMLID_124_" class="st0" d="M65.7,141c0,1.1-0.4,2.1-1.3,3c-1,0.3-1.7,0.5-2.1,0.5c-0.4,0-0.8-0.1-1.4-0.2l-0.6-0.6
		c-0.5,0.5-1.1,0.8-1.6,0.8h-5.3l-1-0.9v-9.6c0.1-0.7,0.5-1.5,1.1-2.2c-0.5-1.2-0.8-2.6-0.8-4.1v-1l0.2-16.8c0-0.4,0.3-1.2,0.9-2.3
		c-1-0.7-1.4-1.5-1.4-2.6c0-1.6,0.1-3.2,0.3-4.8c0-1.6,0-2.4,0-2.6c0-0.2,0-0.6,0-1.4c-0.2-0.7-0.3-1.3-0.3-1.8
		c0-2.3,0.3-3.7,0.8-4.1l0.7-0.6c-1-0.4-1.4-2.1-1.4-5c0-2.2,0.1-4.5,0.4-6.9c0.4-0.6,0.8-1,1.2-1.1c0.4,0,0.9,0,1.8,0h0.7
		c1.3,0,2.4,0.4,3.4,1.1c1.1-0.7,2.2-1.1,3.2-1.1c0.2,0,0.7,0.1,1.3,0.3c0.7,0.2,1.1,0.6,1.3,1.2v4.3c-0.3,0.4-0.5,0.9-0.7,1.2
		c0.4,0.4,0.6,0.7,0.7,1.1v22.9l-0.8,1.3c0.4,0.5,0.6,1.3,0.8,2.5c0,5.7-0.1,14.3-0.3,25.6l-0.3,1.1l0.8,0.8L65.7,141z M82.3,77.6
		c0,0.1,0,0.4,0.1,0.7c0,0.3,0,0.5,0,0.7c0,1.3-0.3,2.7-0.9,4.1c0.6,0.4,0.9,1.4,0.9,2.9c0,0.9,0,1.6-0.1,2.1
		c-0.4,0.7-1.1,1.2-2,1.4h-0.3c-0.1,0-0.3,0-0.6,0c-0.2,0-0.4,0-0.6,0c-1,0-2.2-0.3-3.3-0.8l-0.2,0.1L74.9,89l-0.4,0.4l-3.8-0.1
		l-1-0.9c-0.1-0.9-0.2-1.5-0.2-1.9c0-0.9,0.2-2,0.5-3.2l0.4-0.3c-0.3-0.3-0.6-0.8-0.9-1.4v-1.1c0-2.1,0.4-3.3,1.2-3.8
		c0.4-0.1,0.9-0.1,1.5-0.1c1.3,0,2.5,0.2,3.6,0.7l0.3,0.3c0.6-0.7,1.5-1,2.9-1c0.4,0,1.1,0.1,2.3,0.2L82.3,77.6z M80,110.3
		c1,1.3,1.4,2.4,1.4,3.5c0,1.5-0.7,2.2-2.1,2.2h-0.6c-1,0-1.9-0.3-2.8-0.9c-1.6,0.6-3.1,0.9-4.4,0.9c-0.2,0-0.4,0-0.7,0
		c-0.3,0-0.5,0-0.7,0l-0.8-0.5l-0.1-0.6c0-0.2,0-0.4,0-0.8c0-0.3,0-0.5,0-0.7c0-1.3,0.3-2.7,0.9-4c-0.6-1.3-0.9-2.5-0.9-3.5
		c0-1.9,0.8-2.9,2.5-2.9c0.1,0,0.3,0,0.6,0c0.2,0,0.4,0,0.6,0c0.4,0,0.7,0,0.9,0l1,0.8c2-0.5,3.4-0.8,4.2-0.8c1.5,0,2.3,0.5,2.3,1.5
		v0.2c0,0.7,0,1.3,0,1.6C81.5,107.6,81,109,80,110.3z M83,143.8c-1,0.4-1.6,0.6-2,0.6c-2.6,0-4.3-0.3-5-0.9
		c-0.8,0.6-1.7,0.9-2.8,0.9h-2.8c-0.7-0.9-1-1.9-1-2.9c0-0.5,0-0.9,0.1-1.2c0.1-0.7,0.4-1.4,1.1-1.9c-0.6-0.2-0.9-0.5-1-1
		c-0.1-0.4-0.2-1-0.2-1.9c0-2.3,0.7-3.7,2.2-4c0.2,0,0.6,0,1,0c0.2,0,0.5,0,0.9,0c0.4,0,0.6,0,0.8,0c0.8,0,1.5,0.3,2.3,0.8
		c1.1-0.5,2.5-0.8,4-0.8c0.8,0,1.5,0,1.9,0.1c0.5,1,0.7,2,0.7,3.1c0,0.7-0.1,1.2-0.2,1.5c0,0.4-0.2,0.8-0.7,1.1
		c0.6,1.3,0.9,2.7,0.9,4.2C83.3,142,83.2,142.8,83,143.8z"/>
	<path id="XMLID_120_" class="st0" d="M101.9,143.6c-0.2,1-0.7,1.4-1.8,1.4c-0.7,0-2.4-0.3-4.9-0.9c-0.6-0.5-0.9-1-0.9-1.7h-0.6
		c-2.8,0-5-3-6.5-8.9c-0.2-0.6-0.3-1.2-0.3-1.7c0-0.7,0.2-1.5,0.6-2.2c-0.6-0.6-0.9-1.8-0.9-3.6c0-3,0.5-4.5,1.5-4.5h3.6
		c0.7,0.3,1.2,0.7,1.6,1.1c1-0.7,2.1-1.1,3.4-1.1h0.6c0.2,0,0.3,0,0.6,0c0.3,0,0.5,0,0.6,0.1c1,0.2,1.5,0.7,1.5,1.4l0.1,0.3
		c0,2.9-0.2,4.6-0.7,5c0.4,0.4,0.8,0.9,1.1,1.6c0.4,0.9,0.7,1.5,0.9,1.8c0.4,0.6,0.7,1.1,0.7,1.4v4.3c-0.2,0.6-0.7,1-1.4,1.2
		C101.4,139.2,101.9,140.8,101.9,143.6z M121.2,127.2c-0.1,0.2-0.2,0.6-0.3,1.1c0.2,0.7,0.3,1.4,0.3,2.2c0,0.5,0,0.9-0.1,1.1
		c-2.4,7.5-4.9,11.3-7.6,11.3c-0.3,0-0.6-0.2-1-0.6c-0.7,1.8-2.7,2.7-6,2.7c-0.5,0-0.8-0.5-0.8-1.4c0-0.1,0-0.2,0-0.4
		c0-0.1,0-0.3,0-0.3v-0.8c0-1,0.1-1.9,0.4-2.7l0.4-0.3c-0.6-0.6-0.9-1.2-0.9-1.9V136c0-0.8,0-1.6,0-2.5v-0.2c0-0.3,0.4-0.9,1.1-1.7
		c0.7-0.8,1.1-1.7,1.1-2.6v-0.3c0-0.7,0-1.3,0-2c0-1-0.3-2.1-0.8-3.1v-0.6l0.6-0.9c0.1-0.1,0.2-0.3,0.2-0.4v-0.1
		c-0.5,0.1-0.9,0.2-1.1,0.2c-0.2,0-0.5-0.2-0.9-0.6c-1.9-1.9-4.1-3.8-6.7-5.7c-0.8-0.8-1.3-1.6-1.5-2.2c-2-0.5-4.6-2.8-7.6-6.8
		c-0.1-0.4-0.1-0.5-0.1-0.4c0-0.1,0.1-0.3,0.2-0.6c-0.9-0.4-1.7-1.6-2.3-3.4c-0.7-1.8-1-3.7-1-5.5c0-0.5,0.2-1,0.6-1.4
		c0.4-0.4,0.6-0.7,0.6-0.8c0-0.2-0.2-0.5-0.6-0.9v-1.1c0-3.6,0.8-6.7,2.3-9.3c0.3-0.6,0.8-1.4,1.6-2.6c-0.1,0,0,0,0.6,0.1
		c-0.1,0,0,0,0.6-0.1v-0.1c0-1.7,2.3-3.2,7-4.7c0.5-0.2,0.9-0.2,1.1-0.2c0.7,0,1.1,0.4,1.3,1.1v0.9c0,1.7-0.3,3.1-0.9,4.2
		c0.4,0.3,0.7,0.7,0.9,1.1c-0.1,0.5-0.1,1.2-0.1,2c0,0.4,0,0.9,0.1,1.5c0,0.4,0,0.7,0,0.8v0.3c0,0.2-0.1,0.6-0.2,1.2
		c-0.2,0.3-0.5,0.8-0.8,1.5l-0.2,0.4c-0.2,1-0.3,1.7-0.3,2.2c0,0.2,0,0.6,0,1.1c0,0.5,0,0.9,0,1.2c0,0.4,0,0.9,0,1.5
		c2.4,2.6,5.8,5.5,10,8.7c2.9,2.1,4.3,3.7,4.3,4.8v0.3c0.9,0,1.6,0.2,2.1,0.7c1,1.3,1.9,2.9,2.8,4.8c1.1,3.1,1.7,6.3,1.7,9.5V127.2z
		 M120.8,90.9v4.3c0,1.7-0.7,2.6-2.1,2.6c-0.7,0-2.2-0.2-4.5-0.6c-0.3,0.2-0.7,0.4-1.2,0.6h-3.9c-0.8,0-1.2-0.5-1.2-1.6v-2.1
		c0-2-0.4-3.6-1.3-4.9c-0.6-0.1-0.9-0.6-0.9-1.2c0-0.1,0-0.7,0-1.6c0-0.8,0-1.6,0-2.2v-1.3c0.1-0.4,0.4-0.8,1-1l0.2-0.1
		c-0.8-0.4-1.2-1.2-1.2-2.2v-2.5c0-1,0.6-1.4,1.8-1.4c2.3,0,4.5,0.6,6.5,1.8c1.8,1,2.7,2.1,2.7,3.2c0,0.4-0.1,0.7-0.4,0.9h0.4
		c2,0,3.3,2.3,4,6.9L120.8,90.9z"/>
	<path id="XMLID_117_" class="st0" d="M141.3,142.7v0.2c0,1-1.1,1.5-3.2,1.5c-2.1,0-3.4-0.3-3.9-0.9c-0.5,0.6-1.2,0.9-2.1,0.9h-2.5
		c-0.9,0-1.3-0.9-1.3-2.8c0,0.5,0.1-1.2,0.2-5.3c0-0.7,0.3-1.3,0.9-1.7l-0.2-0.6c-0.6-3-0.9-5.3-0.9-7c0-1.3,0-2.8,0-4.5
		c0-1.8,0-2.9,0-3.4c0-0.6,0-1.6,0-2.9c0-1.3,0-2.2,0-2.9c0-1.3,0.4-2.2,1.1-2.7c-0.2,0.1-0.5,0.1-0.9,0.1c-0.7,0-1-0.2-1-0.6
		c0,0.1,0.2,0,0.7-0.4c1.3-1.2,2-3.4,2-6.7c0-3.1-0.6-7.2-1.9-12.4c0.1-0.7,0.4-1.4,1-2c-0.4-0.4-0.8-0.7-1-0.9v0.1v-10
		c0.2-0.6,0.8-1,1.9-1.1l0.7-0.1c0.1,0,0.3,0,0.6-0.1c0.3,0,0.5,0,0.6,0c1,0,2.1,0.3,3.1,0.9c0.7-0.6,2-0.9,3.9-0.9
		c1.1,0,1.9,0.4,2.3,1.2c0.1,0.3,0.1,0.7,0.1,1.1c0,0.4,0,0.6,0,0.8v2.7c0,0.6-0.3,0.9-0.9,0.9c0.6,1.3,0.9,2.5,0.9,3.5
		c0,0.2,0,0.8,0,1.7c0,0.9,0,1.7,0,2.3c0,0.6,0,2.2,0,4.8s0,4.9,0,6.9c0,2.2,0,4.4-0.1,6.6c0,0.7-0.3,1.5-0.8,2.1
		c0.5,0.6,0.8,1.2,0.9,1.9c0,1.9,0,4.7,0,8.4c0,3,0,5.6,0,7.9c0,0.7-0.3,1.5-0.9,2.3c0.6,0.7,0.9,1.4,0.9,1.9v2.6c0,0.2,0,0.6,0,1.5
		c0,0.7,0,1.5,0,2.1C141.3,141,141.3,142,141.3,142.7z M162.8,99.6c-0.5,8.4-1.8,12.6-4,12.6c-0.4,0-0.6,0-0.7,0c0,0.4,0,0.7,0,0.9
		c0,1.2-1,2.3-3,3.3c-2,0.9-4.7,1.4-8,1.4c-1.1,0-1.7-0.3-1.7-1c0-1.3,0-2.8,0.1-4.6c0.4-0.4,0.8-0.7,1.2-0.9
		c-0.9-0.5-1.3-1.6-1.3-3.1v-0.8c0-1.6,0.6-2.5,1.9-2.7c1.6-1.7,2.5-3.9,2.6-6.5l0.6-1.1c-0.2-0.2-0.5-1.3-0.9-3.1
		c-0.4-1.9-1.3-3.4-2.7-4.6c-0.9,0-1.4-0.5-1.4-1.5c0-0.1,0-0.4,0-1c0-0.2,0-0.6,0-1.1v-0.7c0-0.9,0.4-1.6,1.3-2l-0.2-0.2l-0.4-0.3
		l-0.6-0.4l-0.1-3.9c0-1.1,0.4-1.6,1.2-1.6h0.7c4.3,0,7.7,1.2,10.2,3.6c0.4,0.4,0.7,1,0.7,1.7v0.3h0.4c3,0,4.4,4.5,4.4,13.5v0.8
		c-0.3,0.5-0.7,0.9-1,1.2C162.3,98.1,162.6,98.8,162.8,99.6z"/>
	<path id="XMLID_112_" class="st0" d="M180.6,141c0,1.1-0.4,2.1-1.3,3c-1,0.3-1.7,0.5-2.1,0.5c-0.4,0-0.8-0.1-1.4-0.2l-0.6-0.6
		c-0.5,0.5-1.1,0.8-1.6,0.8h-5.3l-1-0.9v-9.6c0.1-0.7,0.5-1.5,1.1-2.2c-0.5-1.2-0.8-2.6-0.8-4.1v-1l0.2-16.8c0-0.4,0.3-1.2,0.9-2.3
		c-1-0.7-1.4-1.5-1.4-2.6c0-1.6,0.1-3.2,0.3-4.8c0-1.6,0-2.4,0-2.6c0-0.2,0-0.6,0-1.4c-0.2-0.7-0.3-1.3-0.3-1.8
		c0-2.3,0.3-3.7,0.8-4.1l0.7-0.6c-1-0.4-1.4-2.1-1.4-5c0-2.2,0.1-4.5,0.4-6.9c0.4-0.6,0.8-1,1.2-1.1c0.4,0,0.9,0,1.8,0h0.7
		c1.3,0,2.4,0.4,3.4,1.1c1.1-0.7,2.2-1.1,3.2-1.1c0.2,0,0.7,0.1,1.3,0.3c0.7,0.2,1.1,0.6,1.3,1.2v4.3c-0.3,0.4-0.5,0.9-0.7,1.2
		c0.4,0.4,0.6,0.7,0.7,1.1v22.9l-0.8,1.3c0.4,0.5,0.6,1.3,0.8,2.5c0,5.7-0.1,14.3-0.3,25.6l-0.3,1.1l0.8,0.8L180.6,141z M197.2,77.6
		c0,0.1,0,0.4,0.1,0.7c0,0.3,0,0.5,0,0.7c0,1.3-0.3,2.7-0.9,4.1c0.6,0.4,0.9,1.4,0.9,2.9c0,0.9,0,1.6-0.1,2.1
		c-0.4,0.7-1.1,1.2-2,1.4h-0.3c-0.1,0-0.3,0-0.6,0c-0.2,0-0.4,0-0.6,0c-1,0-2.2-0.3-3.3-0.8l-0.2,0.1l-0.3,0.2l-0.4,0.4l-3.8-0.1
		l-1-0.9c-0.2-0.9-0.2-1.5-0.2-1.9c0-0.9,0.2-2,0.5-3.2l0.4-0.3c-0.3-0.3-0.6-0.8-0.9-1.4v-1.1c0-2.1,0.4-3.3,1.2-3.8
		c0.4-0.1,0.9-0.1,1.5-0.1c1.3,0,2.5,0.2,3.6,0.7l0.3,0.3c0.6-0.7,1.5-1,2.9-1c0.4,0,1.1,0.1,2.3,0.2L197.2,77.6z M194.9,110.3
		c1,1.3,1.4,2.4,1.4,3.5c0,1.5-0.7,2.2-2.1,2.2h-0.6c-1,0-1.9-0.3-2.8-0.9c-1.6,0.6-3.1,0.9-4.4,0.9c-0.2,0-0.4,0-0.7,0
		c-0.3,0-0.5,0-0.7,0l-0.8-0.5l-0.1-0.6c0-0.2,0-0.4,0-0.8c0-0.3,0-0.5,0-0.7c0-1.3,0.3-2.7,0.9-4c-0.6-1.3-0.9-2.5-0.9-3.5
		c0-1.9,0.8-2.9,2.5-2.9c0.1,0,0.3,0,0.6,0c0.2,0,0.4,0,0.6,0c0.4,0,0.7,0,0.9,0l1,0.8c2-0.5,3.4-0.8,4.2-0.8c1.5,0,2.3,0.5,2.3,1.5
		v0.2c0,0.7,0,1.3,0,1.6C196.4,107.6,195.9,109,194.9,110.3z M197.9,143.8c-1,0.4-1.6,0.6-2,0.6c-2.6,0-4.3-0.3-5-0.9
		c-0.8,0.6-1.7,0.9-2.8,0.9h-2.8c-0.7-0.9-1-1.9-1-2.9c0-0.5,0-0.9,0.1-1.2c0.1-0.7,0.4-1.4,1.1-1.9c-0.6-0.2-0.9-0.5-1-1
		c-0.1-0.4-0.2-1-0.2-1.9c0-2.3,0.7-3.7,2.2-4c0.2,0,0.6,0,1,0c0.2,0,0.5,0,0.9,0c0.4,0,0.6,0,0.8,0c0.8,0,1.5,0.3,2.3,0.8
		c1.1-0.5,2.5-0.8,4-0.8c0.8,0,1.5,0,1.9,0.1c0.5,1,0.7,2,0.7,3.1c0,0.7-0.1,1.2-0.2,1.5c0,0.4-0.2,0.8-0.7,1.1
		c0.6,1.3,0.9,2.7,0.9,4.2C198.2,142,198.1,142.8,197.9,143.8z"/>
	<path id="XMLID_109_" class="st0" d="M217.1,136.5l-0.3,0.6l-0.2,0.3l-0.2,0.8c0.5,1.9,0.8,3.5,0.8,4.9c-1.6,0.9-2.8,1.3-3.8,1.3
		c-0.1,0-0.2,0-0.5,0c-0.1-0.1-0.3-0.1-0.4-0.1c-0.4-0.1-0.9-0.3-1.5-0.8c-0.6,0.6-1.6,0.9-3,0.9c-0.2,0-0.5,0-1,0
		c-0.5-0.1-0.8-0.1-1.1-0.1c-1.3-0.3-1.9-0.9-1.9-1.8v-16.3c0.2-1,0.6-2.1,1-3.1l-0.3-0.1c-0.4-0.4-0.7-0.7-0.7-1v-16.2l0.7-1
		c-0.4-0.5-0.7-1.6-0.7-3.1c0-0.7,0-2.1,0-4.2c0-2.1,0-3.9,0-5.3v-2c0.2-0.6,0.6-1.2,1-1.7c-0.4-0.4-0.6-0.8-0.7-1
		c-0.2-2.8-0.3-5-0.3-6.5c0-2.8,0.5-4.2,1.6-4.5h1.4c2,0,3.3,0.3,4,1c1.1-0.7,2.2-1,3.3-1c0.1,0,0.4,0,0.7,0
		c0.2,0.1,0.4,0.1,0.6,0.1c0.7,0.1,1.2,0.4,1.7,1.1v3.3c0,0.9-0.3,1.6-1,2.2c0.3,0.2,0.6,0.4,1,0.7v3.3c0,3.3-0.1,6.7-0.4,10.3
		c-0.1,0.2-0.4,0.6-0.8,1.2c0.5,0.3,1,0.7,1.2,1.3v15.7l-0.9,0.9l-0.3,0.2c0.8,1.5,1.2,2.8,1.2,4c0,0.2,0,0.5,0,0.9c0,0.4,0,0.8,0,1
		V136.5z M239.8,117.3c-0.4,12-2.3,18.8-5.9,20.2l0.1,0.4v0.3c0,0.5-0.4,1.2-1.2,2l-0.3,0.3l-0.3,0.2c-3.6,2.4-6.6,3.6-9,3.6
		c-1.6,0-2.3-0.4-2.3-1.2v-0.2c-0.1-0.6-0.1-1.2-0.1-1.8c0-0.6,0.1-1.5,0.3-2.7l0.8-0.6c-0.5-0.4-0.8-0.7-0.9-1.1
		c-0.2-2.4-0.2-3.6-0.2-3.8c0-0.9,0.4-1.4,1.1-1.7c0.3-0.1,0.6-0.2,1.1-0.4c1.6-1.4,2.5-3.2,2.8-5.2c0.5-0.1,0.8-0.3,1-0.8
		c-0.2-1.3-0.3-2.4-0.3-3.1c0-0.7,0.1-1.7,0.2-3.1c0.1-1.4,0.2-2.5,0.2-3.2v-1.8c0-2.2,0.2-4,0.5-5.7l0.4-0.7
		c-0.6-0.8-0.9-1.7-0.9-2.6v-0.6c0-9.4-1.4-14.3-4.3-14.8c-0.8-0.1-1.3-0.3-1.4-0.5c-0.1-0.2-0.2-1.2-0.2-3.2c0-0.9,0.3-1.6,0.9-2.2
		c-0.7-0.8-1-2.3-1-4.5c0-1.3,0.4-2.1,1.2-2.3c0.1,0,0.4,0,0.7-0.1c0.2,0,0.4,0,0.6,0c1.3,0,2.8,0.3,4.5,0.9
		c0.7,0.1,1.3,0.5,1.8,1.2c0.2-0.1,0.4-0.1,0.6-0.1c1.6,0,3.3,1.2,4.9,3.6c1.8,2.6,3.1,6.1,4,10.5c0.3,1.5,0.4,2.3,0.4,2.6
		c0,0.4-0.2,1.2-0.6,2.6c1,0.9,1.6,2.8,1.6,5.8c0,0.2-0.1,1.7-0.2,4.3c-0.1,2.6-0.2,5.1-0.2,7.5l-0.2,0.4l-0.1,0.3
		c-0.3,0.3-0.4,0.5-0.4,0.7C239.2,117,239.4,117.2,239.8,117.3z"/>
	<path id="XMLID_106_" class="st0" d="M260.1,139.2v1c0,0.4,0,0.9,0,1.5c0,0.4,0,0.7,0,0.8c0,1.3-0.8,1.9-2.2,1.9h-1.2
		c-1,0-1.8,0-2.6,0c-0.3-0.2-0.5-0.4-0.7-0.7c-0.4,0.4-0.9,0.6-1.5,0.7h-3.4c-1-0.4-1.6-1.1-1.7-2.2c0.2-1.3,0.3-3.3,0.3-5.8
		c0-1.7-0.1-3.5-0.3-5.3c-0.1-1,0.3-2,1.2-3l-0.1-0.2l-0.5-0.7c-0.4-0.4-0.5-0.9-0.5-1.4v-13.1c0.2-0.7,0.6-1.4,1.2-2.2h-0.3
		c-0.5-0.5-0.8-1.1-1-1.8V96.6c0-0.3,0-0.8,0-1.6c0-0.7,0-1.3,0-1.8c0-0.9,0.4-2,1.1-3.3c-0.4-0.3-0.7-0.6-1.1-1v-1.8
		c0-1.3,0-2.8,0-4.6c0-1.8,0-2.9,0-3.5c0-1.8,1-2.7,2.9-2.7c1.8,0,3,0.3,3.5,1c1.3-0.7,2.4-1,3.4-1c0.1,0,0.3,0,0.6,0
		c0.2,0,0.4,0,0.4,0h0.6c1.3,0,1.9,0.5,1.9,1.4v5.9l-0.8,0.9c0.4,0.4,0.7,1.1,0.8,1.9c-0.3,5.6-0.4,9.7-0.4,12c0,3,0.1,6,0.4,8.9
		l-0.3,0.7l-0.2,0.7l-0.2,0.1c0.2,0.4,0.5,0.9,0.8,1.7c-0.3,1.6-0.4,3.9-0.4,6.7c0,2.5,0.1,5.5,0.2,8.8c0.1,3.3,0.2,5.4,0.2,6.2
		c0,2.2-0.1,3.5-0.3,4l-0.4,0.4c0.5,0.6,0.8,1.2,0.8,1.7c0,0.1,0,0.2,0,0.3C260.1,139,260.1,139.1,260.1,139.2z M283.1,119.3
		c0.2,2.1,0.3,4.1,0.3,6c0,5.1-0.8,8.9-2.3,11.6c-0.4,0.2-0.9,0.3-1.2,0.3c-0.3,0-0.5,0-0.7-0.1c0.1,0.3,0.1,0.7,0.1,1.1
		c0,2-3.5,4-10.4,6c-0.2-0.7-0.5-1.1-0.9-1.1c-0.4,0-0.9,0.4-1.6,1.1h-1.4c-0.7,0-1-0.2-1-0.7c0-0.1,0-0.2,0-0.4c0-0.2,0-0.3,0-0.4
		v-3.7l1.3-1l-1.3-1.4c0-0.4,0-0.9,0-1.7c0-1,0-1.7,0-2.2c0.1-0.7,0.9-1,2.6-1.1c0.8-0.5,1.4-0.9,1.7-1.2c1.3-1.7,2-3.5,2-5.5v-0.9
		l1.2-0.8c-0.6-0.1-1.1-1-1.5-2.7c-0.6-3-2.1-4.6-4.5-4.8c-1-0.4-1.5-1-1.5-1.8v-2.7c0-0.7,0.4-1.3,1.3-1.9l-1.3-1.3
		c0-0.2,0-0.6,0-1.2c0-0.7,0-1.2,0-1.6c0-1,0.4-1.7,1.2-2h0.2v-0.2c1.8-0.2,3-1,3.7-2.7c0.7-1.6,1.3-3.3,1.9-4.9
		c-0.6-0.2-0.9-0.6-0.9-1.2c-0.3-3-2-4.6-5-5c-0.8-0.1-1.1-0.7-1.1-1.9v-0.8c0-1.3,0.3-2.5,1-3.5c-0.7-1.3-1-2.4-1-3.3
		c0-2.3,0.5-3.5,1.6-3.5c0.1,0,0.2,0,0.3,0c0.1,0.1,0.1,0.1,0.2,0.1c7.4,0.3,11.1,1.7,11.1,4.1c0,0.3,0,0.6,0,0.8h0.4
		c0.5,0,1.1,0,1.7,0.1c2,3.4,3.1,7.2,3.1,11.4v0.7c-0.4,0.6-0.8,0.9-1.1,1c0.6,0.7,1,1.3,1.1,1.7c0,7.4-2.8,11.3-8.4,11.7
		c-0.5,0.1-0.8,0.3-0.9,0.8c0.1,0.3,0.4,0.5,0.9,0.7c3.4,0.5,6.1,2.6,7.9,6.1c0.1,0.2,0.1,0.4,0.1,0.8c0,0.6-0.3,1.1-0.8,1.6
		C282,118.2,282.6,118.7,283.1,119.3z"/>
	<path id="XMLID_103_" class="st0" d="M308.9,128.4c0,0.6-0.3,0.9-0.9,0.9c0.1,0-0.3,0-1.2-0.1c-0.9-0.1-1.8-0.1-2.7-0.1
		c-1,0-1.9,0-2.6,0.1c-0.7,3.3-1,5.1-1,5.3c-0.4,1.3-0.8,2-1.3,2.1l-0.3,0.4c0.2,0.2,0.5,0.6,0.8,1.1c-0.1,1.6-0.4,3.2-0.8,4.7
		c-0.2,0.5-0.6,1-1,1.3c-0.5,0.1-1.4,0.1-2.7,0.1h-1.3c-0.3-0.2-0.7-0.5-1.3-0.9l-0.2,0.3l-0.4,0.2l-0.8,0.3h-1.2
		c-0.8,0-2-0.1-3.5-0.2c-0.4-0.4-0.7-1-0.7-1.7c1-3.8,1.8-7.6,2.5-11.5c0.1-0.8,0.6-1.5,1.3-2l-0.3-1.2v-0.2c0-0.4,1-5.4,2.9-14.8
		c0.3-0.6,0.7-1.2,1.3-1.8l-0.1-0.2l-0.3-0.8c1.3-11.1,2.6-16.8,3.9-16.9l0.2-0.2l-0.2-0.1l-0.4-1.1c0.5-2.4,1.3-5.9,2.2-10.5v-0.3
		c0-0.7,0.3-1,1-1.1c0-0.4,0-0.6,0.1-0.6c0.6,0,1.6,5.3,3.1,15.9v0.6l-1.2,0.8c0.9,0,1.5,0.4,1.9,1.2c0,1.1,0.3,2.8,0.8,5
		c0.6,2.2,0.8,3.9,0.8,5c0-0.3-0.2,1-0.6,3.8c-0.1,0.2-0.4,0.6-0.9,1.1l0.1,0.3c0.2,0.7,0.3,1.4,0.3,2.3c0,1-0.2,1.9-0.4,2.7
		l0.3-0.1c0.1,0,0.3,0,0.4,0c0.2,0.1,0.4,0.1,0.4,0.1c0.1,0,0.2,0,0.4-0.1c0.1,0,0.3,0,0.3,0c0.9,0.2,1.4,0.7,1.7,1.6
		c0.1,1.3,0.3,2.4,0.3,3.2l-1,1.3c0.9,0.1,1.4,0.3,1.4,0.6c0.1,0.6,0.3,1.4,0.6,2.5l0.1,0.9V128.4z M328.2,138.8
		c0.3,1.3,0.4,2.2,0.4,2.5c0,1.2-0.5,2.1-1.6,2.7c-0.9,0.2-1.7,0.3-2.6,0.3c-0.6,0-1,0-1.3-0.1l-0.7-0.4l-0.3-0.1
		c-0.4,0.4-0.9,0.7-1.6,0.7c0.2,0-1-0.1-3.7-0.2c-0.8-0.1-1.4-1.6-1.9-4.5c-1.2-6.9-2-11.2-2.3-12.9c-0.2-0.6-0.2-0.9-0.2-1
		c0-0.4,0.1-0.7,0.4-1.1l0.8-0.9c-0.3-0.5-0.6-0.8-1-0.8h-0.2c-0.4,0-0.6-0.2-0.6-0.5l-2.5-13.4l0.8-2.3c-0.9-0.3-1.4-0.9-1.7-1.9
		c-0.2-0.4-0.4-1.6-0.7-3.8c-0.7-4.7-1-6.8-1-6.3c0-0.2,0.2-0.4,0.7-0.6c0.4-0.2,0.7-0.4,0.9-0.5c-0.5-0.2-1.1-0.5-1.9-0.9l-0.2-1.1
		c-0.3-2.2-1.1-6.4-2.4-12.8c0,0.1,0,0-0.1-0.6c0-1.1,0.8-1.7,2.3-1.7c1,0,2.1,0.3,3.3,0.8c0.1-0.4,0.4-0.6,0.7-0.7
		c0.6,0,1.2,0,1.8-0.1h0.9c0.9,0,1.7,0.4,2.5,1.2c0.2,0.7,0.6,1.4,1,2.3c0.5,2.5,1.3,6.6,2.5,12.4c0,0.5-0.3,1.2-0.8,2l0.4,0.2
		c1.1,1.6,1.8,3.2,2.1,4.8c1.6,8.8,2.5,13.5,2.5,14.2c0,0.4,0,0.6-0.1,0.7l-0.3,1.2c0.7,0.5,1.2,1.2,1.3,1.9
		c0.7,3.3,1.7,8.4,3.1,15.3l-0.4,0.9C327.7,135.1,328.2,136.9,328.2,138.8z"/>
	<path id="XMLID_100_" class="st0" d="M346.3,135.5c0,0.4,0,1.2,0,2.1v0.8c0,1.2,0,2,0,2.5c0,2.1-0.7,3.2-2,3.5
		c-3,0-4.8-0.3-5.3-0.9c-0.4,0.6-1,0.9-1.7,0.9c-0.4,0-0.8,0-1.3,0c-0.3,0-0.6,0-0.9,0h-0.6c-1,0-1.4-0.6-1.4-1.8v-1.2
		c0-0.7,0-1.5,0-2.2v-1.9c0-1.4,0.4-2.2,1.1-2.5l-0.7-0.6c-0.3-2.8-0.4-5.6-0.4-8.4c0-2.7,0-4.8,0.1-6.1l0.9-0.8l-0.4-1.1
		c0-3.4,0-6,0-7.8c0-1.8,0-4.5,0-8c0.2-0.7,0.4-1.2,0.8-1.7h-0.2l-0.4-0.7l-0.2-0.4V89.1c0-0.7,0.3-1.3,0.8-1.9l-0.2-0.1l-0.6-0.9
		V78c0.2-0.6,0.8-1,1.8-1.1l0.7-0.1c0.1,0,0.3,0,0.6-0.1c0.2,0,0.4,0,0.4,0c1,0,2,0.3,3,0.8c0.5-0.5,1.8-0.8,3.9-0.8
		c1.1,0,1.9,0.4,2.3,1.2v3.3c0,0.5-0.3,1-0.9,1.3c0.6,0.4,0.9,1.8,0.9,4.1c0,0.5,0,1.3,0,2.5c0,1.1,0,2,0,2.6c0,0.7,0,1.9,0,3.5
		c0,1.6,0,2.7,0,3.6c0,4.4,0,7.8-0.1,10.1c-0.1,0.7-0.3,1.4-0.8,2c0.4,0.5,0.7,1.2,0.8,2.1l0.1,16.7c0,0.2-0.3,0.8-0.8,2l-0.1,0.2
		C346,133,346.3,134.2,346.3,135.5z M368.3,142.5c-0.4,1.2-1.2,1.8-2.2,1.8h-1.8c-0.8,0-1.5-0.1-2-0.2c-0.5-0.1-0.9-0.3-1.1-0.6
		c-0.8,0.5-1.5,0.8-2.2,0.8c-0.1,0-0.4,0-0.7,0c-0.3,0-0.5,0-0.7,0h-0.5c-0.9,0-1.5-0.6-1.9-1.7c-0.7-2.9-1-5.9-1-9
		c0.1-0.7,0.4-1.1,1.1-1.3c-0.7-0.6-1.1-1.3-1.1-2.1c0-0.2,0-0.6,0-1.2s0-1.1,0-1.4c0-0.8,0-1.5,0-2c0-0.4,0-1,0-1.8
		c0-1.3-0.3-2.3-0.8-3.2c-0.5-0.9-1.3-1.7-2.5-2.3c-0.7-0.4-1.1-1-1.1-1.8v-4.1c0-0.5,0.3-1,0.9-1.3c-0.4-0.1-0.7-0.4-0.9-1v-3.7
		c0-1,0.5-1.5,1.4-1.7c1.2-0.9,2.1-2.3,2.5-4.2c0.4-2.2,0.7-3.5,1.1-3.9c-0.5-0.3-0.8-1.4-1.1-3.2c-0.3-1.8-0.8-3-1.7-3.4
		c-0.5-0.2-0.9-0.3-1.4-0.4c-0.5-0.1-0.7-0.5-0.7-1.1v-3.6c0.3-0.4,0.7-1,1.3-1.6l-0.2-0.1l-0.6-0.4h-0.1c-0.3,0-0.4-0.1-0.4-0.4
		v-3.9c0-1.1,0.6-1.7,1.9-1.7c4.9,0,8.7,1.3,11.4,4c0,0.1,0,0.1,0.1,0.2c0,0.2,0,0.3,0,0.3c0,0.2-0.3,0.8-0.8,1.7
		c0.4-0.2,0.8-0.2,1.1-0.2c0.4,0,0.8,0.1,1.1,0.3c1.5,3,2.3,6.5,2.5,10.5c-0.2,1-0.7,1.7-1.6,2.1c1,0.7,1.6,1.6,1.6,2.7
		c-0.1,3.8-1.4,7.2-3.9,10.4c-0.9,0.7-2.2,1.2-3.8,1.4c-0.6,0.1-0.9,0.3-0.9,0.8c0.1,0.2,1.2,0.6,3.3,1.2c1,0.3,2,1.1,2.9,2.3
		c0.9,1.2,1.3,2.2,1.3,3.1c0,0.6-0.2,1-0.4,1.3l0.6-0.1c0.4,1.5,0.7,3.4,0.9,5.8c-0.1,0.5-0.4,0.9-0.7,1.2c0.4,0.4,0.7,1,0.7,1.7
		c0,0.3,0,0.5,0,0.7l0.1,0.9l0.3,8.2l-0.2,0.3l-0.4,1c0.5,0.2,0.8,0.6,0.8,1.2C368,140.7,368.2,141.6,368.3,142.5z"/>
	<path id="XMLID_97_" class="st0" d="M394.3,128.4c0,0.6-0.3,0.9-0.9,0.9c0.1,0-0.3,0-1.2-0.1c-0.9-0.1-1.8-0.1-2.7-0.1
		c-1,0-1.9,0-2.6,0.1c-0.7,3.3-1,5.1-1,5.3c-0.4,1.3-0.8,2-1.3,2.1l-0.3,0.4c0.2,0.2,0.5,0.6,0.8,1.1c-0.1,1.6-0.4,3.2-0.8,4.7
		c-0.2,0.5-0.6,1-1,1.3c-0.5,0.1-1.4,0.1-2.7,0.1h-1.3c-0.3-0.2-0.7-0.5-1.3-0.9l-0.2,0.3l-0.4,0.2l-0.8,0.3h-1.2
		c-0.8,0-2-0.1-3.5-0.2c-0.4-0.4-0.7-1-0.7-1.7c1-3.8,1.8-7.6,2.5-11.5c0.2-0.8,0.6-1.5,1.3-2l-0.3-1.2v-0.2c0-0.4,1-5.4,2.9-14.8
		c0.3-0.6,0.7-1.2,1.3-1.8l-0.1-0.2l-0.3-0.8c1.3-11.1,2.6-16.8,3.9-16.9l0.2-0.2l-0.2-0.1l-0.4-1.1c0.5-2.4,1.3-5.9,2.2-10.5v-0.3
		c0-0.7,0.3-1,1-1.1c0-0.4,0-0.6,0.1-0.6c0.6,0,1.6,5.3,3.1,15.9v0.6l-1.2,0.8c0.9,0,1.5,0.4,1.9,1.2c0,1.1,0.3,2.8,0.8,5
		c0.6,2.2,0.8,3.9,0.8,5c0-0.3-0.2,1-0.6,3.8c-0.2,0.2-0.4,0.6-0.9,1.1l0.1,0.3c0.2,0.7,0.3,1.4,0.3,2.3c0,1-0.2,1.9-0.4,2.7
		l0.3-0.1c0.1,0,0.3,0,0.4,0c0.2,0.1,0.4,0.1,0.4,0.1c0.1,0,0.2,0,0.4-0.1c0.1,0,0.3,0,0.3,0c0.9,0.2,1.4,0.7,1.7,1.6
		c0.1,1.3,0.3,2.4,0.3,3.2l-1,1.3c0.9,0.1,1.4,0.3,1.4,0.6c0.1,0.6,0.3,1.4,0.6,2.5l0.1,0.9V128.4z M413.6,138.8
		c0.3,1.3,0.4,2.2,0.4,2.5c0,1.2-0.5,2.1-1.6,2.7c-0.9,0.2-1.7,0.3-2.6,0.3c-0.6,0-1,0-1.3-0.1l-0.7-0.4l-0.3-0.1
		c-0.4,0.4-0.9,0.7-1.6,0.7c0.2,0-1-0.1-3.7-0.2c-0.8-0.1-1.4-1.6-1.9-4.5c-1.2-6.9-2-11.2-2.3-12.9c-0.2-0.6-0.2-0.9-0.2-1
		c0-0.4,0.1-0.7,0.4-1.1l0.8-0.9c-0.3-0.5-0.6-0.8-1-0.8h-0.2c-0.4,0-0.6-0.2-0.6-0.5l-2.5-13.4l0.8-2.3c-0.9-0.3-1.4-0.9-1.7-1.9
		c-0.2-0.4-0.4-1.6-0.7-3.8c-0.7-4.7-1-6.8-1-6.3c0-0.2,0.2-0.4,0.7-0.6c0.4-0.2,0.7-0.4,0.9-0.5c-0.5-0.2-1.1-0.5-1.9-0.9l-0.2-1.1
		c-0.3-2.2-1.1-6.4-2.4-12.8c0,0.1,0,0-0.1-0.6c0-1.1,0.8-1.7,2.3-1.7c1,0,2.1,0.3,3.3,0.8c0.1-0.4,0.4-0.6,0.7-0.7
		c0.6,0,1.2,0,1.8-0.1h0.9c0.9,0,1.7,0.4,2.5,1.2c0.2,0.7,0.6,1.4,1,2.3c0.5,2.5,1.3,6.6,2.5,12.4c0,0.5-0.3,1.2-0.8,2l0.4,0.2
		c1.1,1.6,1.8,3.2,2.1,4.8c1.6,8.8,2.5,13.5,2.5,14.2c0,0.4,0,0.6-0.1,0.7l-0.3,1.2c0.7,0.5,1.2,1.2,1.3,1.9
		c0.7,3.3,1.7,8.4,3.1,15.3l-0.4,0.9C413,135.1,413.6,136.9,413.6,138.8z"/>
	<path id="XMLID_93_" class="st0" d="M422,82.7c0.4,1.6,0.6,3,0.6,4.2c0,1.1-0.3,1.8-0.8,2.1c-0.5,0.3-1.1,0.4-1.9,0.4
		c-0.5,0-1-0.2-1.5-0.6c-0.4,0.4-0.9,0.6-1.3,0.6c-0.2,0-0.4,0-0.5,0c-0.1,0-0.4,0-0.6,0c-1.1,0-1.6-0.6-1.6-1.9
		c0-1,0.2-2.3,0.6-4.1c-0.4-0.5-0.6-1.7-0.6-3.5v-1.8c0-0.7,0.2-1.2,0.7-1.4c0.2-0.1,0.6-0.1,1.1-0.1c1.2,0,2.1,0.3,2.9,0.8l0.5-0.6
		c0.4,0,0.9,0,1.4-0.1c0.5-0.1,0.8-0.1,0.9-0.1c0.5,0,0.8,0.2,0.8,0.7c0,0.1,0,0.3,0,0.8v1.1C422.5,80.6,422.3,81.8,422,82.7z
		 M438.4,138.2c0.7,1.3,1.1,2.5,1.1,3.3c0,1.9-1.1,2.8-3.3,2.8h-1.8c-0.1,0-0.5-0.3-1.3-0.8c-0.6,0.5-1.3,0.8-2.1,0.8h-3
		c-1.3,0-1.9-0.7-1.9-2v-12.9c0.3-1.2,0.8-2.1,1.3-2.8v-0.4c-0.6,0-1.1-0.4-1.3-1.1l0.1-16.2c0.2-0.4,0.3-0.8,0.5-1
		c-0.6-0.4-0.9-2-0.9-4.9c0-0.7,0.1-1.9,0.2-3.6c0.1-1.7,0.2-3,0.2-3.8c0-1.3,0-2.8,0-4.6c0-1.9,0-3,0-3.6c0-2.5,0.3-3.9,1-4.1
		c-0.5-0.5-0.8-0.9-0.9-1.1c-0.1-0.7-0.1-1.3-0.1-1.8c0-1.5,0.2-2.6,0.7-3.2l1-0.4c0.1,0,0.3,0,0.6-0.1c0.2,0,0.4,0,0.6,0
		c1.4,0,2.7,0.3,3.9,1c1.1-0.7,2-1,2.7-1c2.2,0,3.3,0.4,3.6,1.2v3.8c-0.2,0.5-0.5,1.1-0.9,1.8l0.8,0.7c0.1,1,0.1,2.5,0.1,4.5
		c0,3.3-0.2,6.4-0.4,9.1c-0.1,0.1-0.2,0.4-0.3,0.6c-0.1,0.3-0.3,0.5-0.3,0.6c0.7,0.3,1,0.7,1.1,1.3v15.7l-0.9,0.9L438,117
		c0.7,1.4,1,2.7,1,3.8c0,0.2,0,0.6,0,1c0,0.4,0,0.8,0,1.1v13.5C439,137.2,438.8,137.8,438.4,138.2z M450.6,77.6V80
		c0,1.9-0.2,3-0.7,3.3c0.4,1.1,0.7,2.4,0.7,3.9v1.1c-0.2,0.6-0.7,0.9-1.7,1l-0.3-0.1c-0.5,0-1-0.2-1.7-0.6l-1,0.7h-0.9
		c-1.7,0-2.5-0.3-2.5-0.8v-0.2c0-0.4,0-0.9,0-1.7c0-1.5,0.2-2.8,0.7-3.9c-0.4-1.1-0.7-1.9-0.7-2.2v-1.1c0-1.9,0.6-2.8,1.7-2.8
		c0.5,0,1,0,1.3,0.1l0.7,0.7c0.3-0.3,0.9-0.6,1.7-0.8h2.2C450.3,76.7,450.4,77,450.6,77.6z"/>
	<path id="XMLID_90_" class="st0" d="M470,144c-0.2,0.7-0.6,1.1-1.5,1.1h-0.3c-1.8,0-3.5-0.5-5.1-1.4c-1.6-1-2.5-1.9-2.5-2.8v-0.3
		c-0.4-0.1-1-0.4-1.8-0.9c-1.6-2.2-2.7-4.8-3.6-7.8c-0.1-0.4-0.2-0.9-0.3-1.7c0.1-0.4,0.3-0.7,0.6-0.9c-0.4-0.1-0.7-0.4-0.8-0.9
		c-0.7-3-1.1-6-1.1-9.1c0-1.7,0.3-3.4,0.9-5l-0.3-0.4c-0.4-3.9-0.6-7.5-0.6-11c0-5.9,0.5-9.3,1.5-10c-0.2-0.4-0.2-0.9-0.2-1.3
		c0-1.9,0.7-4.3,2.2-7.4c1.8-3.7,3.4-5.6,4.8-5.6c0.1,0,0.7,0.4,1.7,1.1l0.1-1.8c1.6-1.3,3.2-2,4.7-2c0.4,0,1,0.4,1.6,1.2v0.9
		c0,0.2,0,0.6,0.1,1c0,0.4,0,0.8,0,1.1c0,1-0.2,1.9-0.4,2.9c0.3,0.3,0.4,0.7,0.4,1.3c-0.2,0.7-0.2,1.3-0.2,1.6c0,0.2,0,0.5,0.1,0.9
		c0,0.4,0,0.7,0,0.9c0,0.7-0.2,1.4-0.7,2.1c-1,2.3-1.7,4.8-2.1,7.7l-0.9,0.9l0.3,0.3c0.3,0.4,0.5,0.8,0.6,1.1l-0.2,9.2v6.2l0.2,2.8
		c-0.2,0.4-0.2,0.9-0.2,1.4c0,0.3,0.1,0.7,0.2,1.1c0,0.4,0,0.7,0,0.9c0,0.8-0.3,1.5-0.9,2.1c0.3,0.2,0.7,0.6,1.1,1.2
		c0.4,2.7,1,5.1,1.9,7.1c0.5,0.4,0.8,1.1,0.8,2c0,0.2,0,0.7,0,1.7c-0.1,1-0.1,2-0.1,2.9l-0.9,0.9h-0.3l1.2,0.9
		C470,140.6,470,141.9,470,144z M490.4,100.4v0.9c0,2-0.4,3.9-1.1,5.6l0.5,0.4c0.4,3.9,0.6,7.7,0.6,11.1c0,6-0.6,9.3-1.9,9.9
		c0.4,0.9,0.6,1.8,0.6,2.7c-0.9,4.9-3.2,8.8-7,11.7c-0.3,0.1-0.6,0.2-0.8,0.2c-0.1,0-0.2,0-0.3-0.1l-0.6-0.3v1
		c-2.1,1-3.9,1.5-5.3,1.6c-0.7-0.1-1.1-0.6-1.1-1.3c0-3,0.4-4.6,1.3-4.8c-1-0.3-1.4-1.1-1.4-2.3c0-2.6,0.3-4.2,0.8-4.7
		c0.9-1.3,1.6-3.2,2-5.6c0.4-1.9,0.9-2.9,1.5-3.2l-0.4-0.4c-0.1-0.3-0.3-0.7-0.5-1.1v-9v-4v-5.1c0-0.9,0-1.4,0-1.6c0-1,0-1.8,0-2.3
		c0-0.4,0.3-1.1,0.8-1.9c-0.5-0.4-0.9-0.8-1.2-1.3c-0.2-1-0.2-1.6-0.2-1.7c-0.4-2.3-0.9-4.1-1.4-5.2l-0.7-0.6
		c-0.4-0.6-0.6-1.8-0.6-3.7c0-0.3,0-0.8,0.1-1.4c0-0.7,0-1.2,0-1.6l0.9-0.8c-0.6-0.1-0.9-1.5-0.9-4.1c0.1-1,0.7-1.4,1.8-1.4
		c1.8,0,3.5,0.5,5.3,1.6c1.7,1.1,2.6,2.1,2.6,3v0.1c0.7,0.2,1.3,0.6,2,1c1.8,2.7,2.8,5.3,3.1,7.8c0.1,0.4,0.2,0.9,0.2,1.7
		c-0.1,0.5-0.3,0.9-0.4,1l0.9,0.8C490,95.7,490.4,98.3,490.4,100.4z"/>
</g>
<g id="XMLID_70_">
	<g id="XMLID_84_">
		<path id="XMLID_85_" class="st1" d="M26.6,54.6c0.1,1.6,0.3,3.2,0.6,4.8c0.2,1.4,0.3,2.2,0.3,2.3c0,0.8-0.2,1.3-0.7,1.3h-2.4
			c-0.5,0-0.9-0.3-1.2-0.8C23,62.7,22.7,63,22.3,63h-1.9c-0.8,0-1.3-0.5-1.4-1.5c-0.1-0.7-0.2-1.9-0.5-3.6c0.3-0.4,0.4-0.7,0.5-0.7
			c-0.5-0.3-1-1.4-1.3-3.1c-0.4-2.3-0.8-4.6-1.1-6.9c0.1-0.5,0.3-1,0.6-1.5c-0.7-0.4-1.5-3.8-2.4-10.4c0-0.6,0.1-1.1,0.2-1.4v-0.2
			l-0.1-0.2l-0.5-0.2c-1-6.2-1.5-9.6-1.5-10.4c0-0.3,0.2-0.7,0.5-1c-0.4-0.1-0.7-0.3-0.8-0.7c-0.3-1.3-0.7-3.2-1.3-5.7
			c0-0.1,0-0.1,0-0.2c-0.1-0.1-0.1-0.2-0.1-0.2c0-1.1,0.8-1.7,2.4-1.7c0.3,0,0.8,0.1,1.7,0.1c0.4,0.3,0.8,0.5,1,0.6
			c0.9-0.5,1.8-0.7,2.7-0.7c0.5,0,0.9,0,1.1,0.1c0.7,0.2,1.1,0.5,1.1,1l0.5,3.4l-0.6,0.6c0.2,0.1,0.4,0.3,0.7,0.7
			c0.7,4.1,1.2,7.8,1.4,11c-0.1,0.2-0.3,0.5-0.5,0.8h0.2c0.4,0,0.7,1,1,2.9c0.4,3,0.8,6,1.1,8.9c0,0.5-0.1,0.9-0.2,1.2l-0.2,0.6
			l0.7,0.5c0.4,2.7,0.7,5.1,0.9,7.2c0.1,0.1,0.1,0.2,0.1,0.4c0,0.3-0.1,0.6-0.3,0.8C26.2,53.8,26.4,54.2,26.6,54.6z M47.6,61.9
			c-0.7,0.8-1.5,1.1-2.4,1.1c-0.4,0-0.8,0-1-0.1l-0.9-0.7c-0.7,0.5-1.3,0.8-2,0.8c-0.1,0-0.2,0-0.3,0c-0.1-0.1-0.2-0.1-0.2-0.1
			c-0.7-0.1-1.2-0.6-1.4-1.6c-0.2-0.8-0.3-2.3-0.4-4.6l0.4-0.2c-0.5-0.4-0.8-0.8-0.9-1.3l-0.9-5.9c0.1-0.3,0.3-0.8,0.7-1.3
			c-0.5-0.3-0.8-1-1-2c-0.2-1-0.4-2-0.6-3c-0.3-1.3-0.5-2.3-0.6-3.3c-0.1-1.2-0.2-3.4-0.2-6.7c0-1.1,0-2.5,0-4.2c0-1.6,0-2.7,0-3.3
			c0-3.8-0.3-5.7-0.9-5.7h-0.2c-0.8,0.3-1.2,1.9-1.2,4.9c0,0.7,0.1,2,0.2,4c0.1,2,0.2,3.7,0.2,5.1c0,2.1-0.1,4.1-0.3,6
			c-0.5,2.8-1.1,6.3-1.8,10.4l-0.2,1.3l-0.3-0.1c-0.3,3.6-0.7,5.7-1.1,6.4c-1.3-6.7-2-11.1-2-13.2c0-0.6,0.2-1.1,0.7-1.2l-0.2-0.2
			c-0.4-0.3-0.7-0.6-0.7-1.1c-0.3-1.7-0.7-4.9-1.3-9.6c0.2-1,0.4-2,0.6-2.9c0.2-0.9,0.5-1.5,0.9-1.8c-0.4-0.4-0.7-0.9-0.7-1.5
			c0-0.8,0.5-2.8,1.4-6l0.5-0.5C29.1,19.6,29,19,29,18.3c0-0.7,0.1-1.3,0.3-1.8v-0.2c0-1,0.4-1.9,1.2-2.5l0.7-0.2
			c0.1,0,0.2,0,0.4-0.1c0.2,0,0.4,0,0.4,0c0.9,0,2,0.2,3.2,0.7c0.7-0.4,1.5-0.7,2.4-0.7c0.4,0,0.7,0,0.9,0.1c0.7,0.1,1.2,0.4,1.6,1
			c0.4,1.4,0.7,3.1,0.7,5.1v1.1v0.2c0.6,0.7,1,2,1.2,3.9l0.6,4.2l-0.2,1.3l-0.1,0.2c0.5,0.8,0.9,1.8,1.1,3.1
			c0.2,1.8,0.5,3.5,0.8,5.3c0.3,1.5,0.5,2.3,0.5,2.4c0,0.5-0.2,1-0.6,1.6c0.7,0.3,1.1,0.9,1.1,1.7c0.2,1.6,0.5,4,0.8,7.1l-0.3,0.6
			c0.7,1,1,2.3,1.1,3.8C47.2,58.1,47.4,60,47.6,61.9z M57.5,17c-0.7,3.6-1.3,7.3-1.7,11c-0.3,0.3-0.6,0.5-1,0.6
			c0.2,0.6,0.3,1.3,0.3,2.1c0,0.9-0.2,1.8-0.5,2.8l-0.1-0.2c-0.3,2.3-0.6,4.6-1,6.9l-0.7,0.7c0.2,0.5,0.2,1,0.2,1.4
			c0,0.1,0,0.2,0,0.4c-0.1,0.2-0.1,0.4-0.1,0.4c0,0.1-0.3,1.8-0.9,5.3c-0.2,1.3-0.6,2.1-1.1,2.3c0.4,0.4,0.6,0.8,0.6,1.3
			c0,0.3-0.1,0.9-0.3,1.8c-0.2,1.1-0.4,2.1-0.5,2.9c-0.1,0.8-0.3,1.2-0.7,1.2c-0.2,0-0.4-0.4-0.5-1.2c-0.2-1.2-0.3-2.5-0.5-3.7
			c-0.1-0.6-0.4-2.6-0.7-6c-0.1-0.4-0.2-1.1-0.4-1.9c-0.2-0.8-0.4-1.4-0.4-1.8c0-0.9,0.4-1.3,1.1-1.3h0.2c-0.3-0.2-0.8-0.5-1.5-0.9
			c-0.8-5.5-1.2-8.4-1.2-8.9v-0.5l1-8.4c0.2-0.7,0.5-1.3,1-1.8c-0.3-0.4-0.5-0.8-0.5-1.4v-0.3c0.2-1.1,0.4-2.3,0.6-3.4
			c0.2-1.1,0.5-2,1-2.5c0.3-0.1,0.8-0.1,1.5-0.1c0.8,0,1.4,0.1,1.8,0.2c0.4,0.3,0.7,0.7,0.7,1c0.1-0.2,0.3-0.5,0.6-1l2.3-0.2
			c1,0,1.5,0.4,1.5,1.1c0,0.1,0,0.4-0.1,0.9C57.6,16.1,57.5,16.6,57.5,17z"/>
	</g>
	<g id="XMLID_79_">
		<path id="XMLID_80_" class="st1" d="M73.4,54.6c0.1,1.6,0.3,3.2,0.6,4.8c0.2,1.4,0.3,2.2,0.3,2.3c0,0.8-0.2,1.3-0.7,1.3h-2.4
			c-0.5,0-0.9-0.3-1.2-0.8c-0.3,0.5-0.6,0.8-0.9,0.8h-1.9c-0.8,0-1.3-0.5-1.4-1.5c-0.1-0.7-0.2-1.9-0.5-3.6c0.3-0.4,0.4-0.7,0.5-0.7
			c-0.5-0.3-1-1.4-1.3-3.1c-0.4-2.3-0.8-4.6-1.1-6.9c0.1-0.5,0.3-1,0.6-1.5c-0.7-0.4-1.5-3.8-2.4-10.4c0-0.6,0.1-1.1,0.2-1.4v-0.2
			l-0.1-0.2l-0.5-0.2c-1-6.2-1.6-9.6-1.6-10.4c0-0.3,0.2-0.7,0.5-1c-0.4-0.1-0.7-0.3-0.8-0.7c-0.3-1.3-0.7-3.2-1.3-5.7
			c0-0.1,0-0.1,0-0.2c-0.1-0.1-0.1-0.2-0.1-0.2c0-1.1,0.8-1.7,2.4-1.7c0.3,0,0.8,0.1,1.7,0.1c0.4,0.3,0.8,0.5,1,0.6
			c0.9-0.5,1.8-0.7,2.7-0.7c0.5,0,0.9,0,1.1,0.1c0.7,0.2,1.1,0.5,1.1,1l0.5,3.4L68,18.6c0.2,0.1,0.4,0.3,0.7,0.7
			c0.7,4.1,1.2,7.8,1.4,11c-0.1,0.2-0.3,0.5-0.5,0.8h0.2c0.4,0,0.7,1,1,2.9c0.4,3,0.8,6,1.1,8.9c0,0.5-0.1,0.9-0.2,1.2l-0.2,0.6
			l0.7,0.5c0.4,2.7,0.7,5.1,0.9,7.2c0.1,0.1,0.1,0.2,0.1,0.4c0,0.3-0.1,0.6-0.3,0.8C73,53.8,73.3,54.2,73.4,54.6z M94.5,61.9
			C93.8,62.6,92.9,63,92,63c-0.4,0-0.8,0-1-0.1l-0.9-0.7c-0.7,0.5-1.3,0.8-2,0.8c-0.1,0-0.2,0-0.3,0c-0.1-0.1-0.2-0.1-0.2-0.1
			c-0.7-0.1-1.2-0.6-1.4-1.6c-0.2-0.8-0.3-2.3-0.4-4.6l0.4-0.2c-0.5-0.4-0.8-0.8-0.9-1.3l-0.9-5.9c0.1-0.3,0.3-0.8,0.7-1.3
			c-0.5-0.3-0.8-1-1-2c-0.2-1-0.4-2-0.6-3c-0.3-1.3-0.5-2.3-0.6-3.3c-0.1-1.2-0.2-3.4-0.2-6.7c0-1.1,0-2.5,0-4.2c0-1.6,0-2.7,0-3.3
			c0-3.8-0.3-5.7-0.9-5.7h-0.2c-0.8,0.3-1.2,1.9-1.2,4.9c0,0.7,0.1,2,0.2,4c0.1,2,0.2,3.7,0.2,5.1c0,2.1-0.1,4.1-0.3,6
			c-0.5,2.8-1.1,6.3-1.8,10.4l-0.2,1.3l-0.3-0.1c-0.3,3.6-0.7,5.7-1.1,6.4c-1.3-6.7-2-11.1-2-13.2c0-0.6,0.2-1.1,0.7-1.2l-0.2-0.2
			c-0.4-0.3-0.7-0.6-0.7-1.1c-0.3-1.7-0.7-4.9-1.3-9.6c0.2-1,0.4-2,0.6-2.9c0.2-0.9,0.5-1.5,0.9-1.8c-0.4-0.4-0.7-0.9-0.7-1.5
			c0-0.8,0.5-2.8,1.4-6l0.5-0.5c-0.2-0.5-0.3-1.1-0.3-1.7c0-0.7,0.1-1.3,0.3-1.8v-0.2c0-1,0.4-1.9,1.2-2.5l0.7-0.2
			c0.1,0,0.2,0,0.4-0.1c0.2,0,0.4,0,0.4,0c0.9,0,2,0.2,3.2,0.7c0.7-0.4,1.5-0.7,2.4-0.7c0.4,0,0.7,0,0.9,0.1c0.7,0.1,1.2,0.4,1.6,1
			c0.4,1.4,0.7,3.1,0.7,5.1v1.1v0.2c0.6,0.7,1,2,1.3,3.9l0.6,4.2l-0.2,1.3l-0.1,0.2c0.5,0.8,0.9,1.8,1.1,3.1
			c0.2,1.8,0.5,3.5,0.8,5.3c0.3,1.5,0.5,2.3,0.5,2.4c0,0.5-0.2,1-0.6,1.6c0.7,0.3,1.1,0.9,1.1,1.7c0.2,1.6,0.5,4,0.8,7.1l-0.3,0.6
			c0.7,1,1,2.3,1.1,3.8C94.1,58.1,94.3,60,94.5,61.9z M104.4,17c-0.7,3.6-1.3,7.3-1.7,11c-0.3,0.3-0.6,0.5-1,0.6
			c0.2,0.6,0.3,1.3,0.3,2.1c0,0.9-0.2,1.8-0.5,2.8l-0.1-0.2c-0.3,2.3-0.6,4.6-1,6.9l-0.7,0.7c0.2,0.5,0.2,1,0.2,1.4
			c0,0.1,0,0.2,0,0.4c-0.1,0.2-0.1,0.4-0.1,0.4c0,0.1-0.3,1.8-0.9,5.3c-0.2,1.3-0.6,2.1-1.1,2.3c0.4,0.4,0.6,0.8,0.6,1.3
			c0,0.3-0.1,0.9-0.3,1.8c-0.2,1.1-0.4,2.1-0.5,2.9c-0.1,0.8-0.3,1.2-0.7,1.2c-0.2,0-0.4-0.4-0.5-1.2c-0.2-1.2-0.3-2.5-0.5-3.7
			c-0.1-0.6-0.4-2.6-0.7-6c-0.1-0.4-0.2-1.1-0.4-1.9c-0.2-0.8-0.4-1.4-0.4-1.8c0-0.9,0.4-1.3,1.1-1.3h0.2c-0.3-0.2-0.8-0.5-1.5-0.9
			c-0.8-5.5-1.2-8.4-1.2-8.9v-0.5l1-8.4c0.2-0.7,0.5-1.3,1-1.8c-0.3-0.4-0.5-0.8-0.5-1.4v-0.3c0.2-1.1,0.4-2.3,0.6-3.4
			c0.2-1.1,0.5-2,1-2.5c0.3-0.1,0.8-0.1,1.5-0.1c0.8,0,1.4,0.1,1.8,0.2c0.4,0.3,0.7,0.7,0.7,1c0.1-0.2,0.3-0.5,0.6-1l2.3-0.2
			c1,0,1.5,0.4,1.5,1.1c0,0.1,0,0.4-0.1,0.9C104.4,16.1,104.4,16.6,104.4,17z"/>
	</g>
	<g id="XMLID_74_">
		<path id="XMLID_75_" class="st1" d="M120.3,54.6c0.1,1.6,0.3,3.2,0.6,4.8c0.2,1.4,0.3,2.2,0.3,2.3c0,0.8-0.2,1.3-0.7,1.3h-2.4
			c-0.5,0-0.9-0.3-1.2-0.8c-0.3,0.5-0.6,0.8-0.9,0.8h-1.9c-0.8,0-1.3-0.5-1.4-1.5c-0.1-0.7-0.2-1.9-0.5-3.6c0.3-0.4,0.4-0.7,0.5-0.7
			c-0.5-0.3-1-1.4-1.3-3.1c-0.4-2.3-0.8-4.6-1.1-6.9c0.1-0.5,0.3-1,0.6-1.5c-0.7-0.4-1.5-3.8-2.4-10.4c0-0.6,0.1-1.1,0.2-1.4v-0.2
			l-0.1-0.2l-0.5-0.2c-1-6.2-1.5-9.6-1.5-10.4c0-0.3,0.2-0.7,0.5-1c-0.4-0.1-0.7-0.3-0.8-0.7c-0.3-1.3-0.7-3.2-1.3-5.7
			c0-0.1,0-0.1,0-0.2c-0.1-0.1-0.1-0.2-0.1-0.2c0-1.1,0.8-1.7,2.4-1.7c0.3,0,0.8,0.1,1.7,0.1c0.4,0.3,0.8,0.5,1,0.6
			c0.9-0.5,1.8-0.7,2.7-0.7c0.5,0,0.9,0,1.1,0.1c0.7,0.2,1.1,0.5,1.1,1l0.5,3.4l-0.6,0.6c0.2,0.1,0.4,0.3,0.7,0.7
			c0.7,4.1,1.2,7.8,1.4,11c-0.1,0.2-0.3,0.5-0.5,0.8h0.2c0.4,0,0.7,1,1,2.9c0.4,3,0.8,6,1.1,8.9c0,0.5-0.1,0.9-0.2,1.2l-0.2,0.6
			l0.7,0.5c0.4,2.7,0.7,5.1,0.9,7.2c0.1,0.1,0.1,0.2,0.1,0.4c0,0.3-0.1,0.6-0.3,0.8C119.9,53.8,120.1,54.2,120.3,54.6z M141.3,61.9
			c-0.7,0.8-1.5,1.1-2.4,1.1c-0.4,0-0.8,0-1-0.1l-0.9-0.7c-0.7,0.5-1.3,0.8-2,0.8c-0.1,0-0.2,0-0.3,0c-0.1-0.1-0.2-0.1-0.2-0.1
			c-0.7-0.1-1.2-0.6-1.4-1.6c-0.2-0.8-0.3-2.3-0.4-4.6l0.4-0.2c-0.5-0.4-0.8-0.8-0.9-1.3l-0.9-5.9c0.1-0.3,0.3-0.8,0.7-1.3
			c-0.5-0.3-0.8-1-1-2c-0.2-1-0.4-2-0.6-3c-0.3-1.3-0.5-2.3-0.6-3.3c-0.1-1.2-0.2-3.4-0.2-6.7c0-1.1,0-2.5,0-4.2c0-1.6,0-2.7,0-3.3
			c0-3.8-0.3-5.7-0.9-5.7h-0.2c-0.8,0.3-1.2,1.9-1.2,4.9c0,0.7,0.1,2,0.2,4c0.1,2,0.2,3.7,0.2,5.1c0,2.1-0.1,4.1-0.3,6
			c-0.5,2.8-1.1,6.3-1.8,10.4l-0.2,1.3l-0.3-0.1c-0.3,3.6-0.7,5.7-1.1,6.4c-1.3-6.7-2-11.1-2-13.2c0-0.6,0.2-1.1,0.7-1.2l-0.2-0.2
			c-0.4-0.3-0.7-0.6-0.7-1.1c-0.3-1.7-0.7-4.9-1.3-9.6c0.2-1,0.4-2,0.6-2.9c0.2-0.9,0.5-1.5,0.9-1.8c-0.4-0.4-0.7-0.9-0.7-1.5
			c0-0.8,0.5-2.8,1.4-6l0.5-0.5c-0.2-0.5-0.3-1.1-0.3-1.7c0-0.7,0.1-1.3,0.3-1.8v-0.2c0-1,0.4-1.9,1.2-2.5l0.7-0.2
			c0.1,0,0.2,0,0.4-0.1c0.2,0,0.4,0,0.4,0c0.9,0,2,0.2,3.2,0.7c0.7-0.4,1.5-0.7,2.4-0.7c0.4,0,0.7,0,0.9,0.1c0.7,0.1,1.2,0.4,1.6,1
			c0.4,1.4,0.7,3.1,0.7,5.1v1.1v0.2c0.6,0.7,1,2,1.2,3.9l0.6,4.2l-0.2,1.3l-0.1,0.2c0.5,0.8,0.9,1.8,1.1,3.1
			c0.2,1.8,0.5,3.5,0.8,5.3c0.3,1.5,0.5,2.3,0.5,2.4c0,0.5-0.2,1-0.6,1.6c0.7,0.3,1.1,0.9,1.1,1.7c0.2,1.6,0.5,4,0.8,7.1l-0.3,0.6
			c0.7,1,1,2.3,1.1,3.8C141,58.1,141.2,60,141.3,61.9z M151.3,17c-0.7,3.6-1.3,7.3-1.7,11c-0.3,0.3-0.6,0.5-1,0.6
			c0.2,0.6,0.3,1.3,0.3,2.1c0,0.9-0.2,1.8-0.5,2.8l-0.1-0.2c-0.3,2.3-0.6,4.6-1,6.9l-0.7,0.7c0.2,0.5,0.2,1,0.2,1.4
			c0,0.1,0,0.2,0,0.4c-0.1,0.2-0.1,0.4-0.1,0.4c0,0.1-0.3,1.8-0.9,5.3c-0.2,1.3-0.6,2.1-1.1,2.3c0.4,0.4,0.6,0.8,0.6,1.3
			c0,0.3-0.1,0.9-0.3,1.8c-0.2,1.1-0.4,2.1-0.5,2.9c-0.1,0.8-0.3,1.2-0.7,1.2c-0.2,0-0.4-0.4-0.5-1.2c-0.2-1.2-0.3-2.5-0.5-3.7
			c-0.1-0.6-0.4-2.6-0.7-6c-0.1-0.4-0.2-1.1-0.4-1.9c-0.2-0.8-0.4-1.4-0.4-1.8c0-0.9,0.4-1.3,1.1-1.3h0.2c-0.3-0.2-0.8-0.5-1.5-0.9
			c-0.8-5.5-1.2-8.4-1.2-8.9v-0.5l1-8.4c0.2-0.7,0.5-1.3,1-1.8c-0.3-0.4-0.5-0.8-0.5-1.4v-0.3c0.2-1.1,0.4-2.3,0.6-3.4
			c0.2-1.1,0.5-2,1-2.5c0.3-0.1,0.8-0.1,1.5-0.1c0.8,0,1.4,0.1,1.8,0.2c0.4,0.3,0.7,0.7,0.7,1c0.1-0.2,0.3-0.5,0.6-1l2.3-0.2
			c1,0,1.5,0.4,1.5,1.1c0,0.1,0,0.4-0.1,0.9C151.3,16.1,151.3,16.6,151.3,17z"/>
	</g>
	<g id="XMLID_71_">
		<path id="XMLID_72_" class="st1" d="M162.7,62c0,0.7-0.8,1.1-2.3,1.1c-0.1,0-0.3,0-0.6,0c-0.2-0.1-0.4-0.1-0.6-0.1
			c-0.5-0.2-0.9-0.5-1.2-1.1c-0.7,0.8-1.5,1.1-2.3,1.1c-1,0-1.6-0.3-1.7-0.9c0-1.9,0.1-3.5,0.3-4.8c0.2-0.4,0.6-0.7,1.1-0.8
			c-0.9-1.1-1.4-2.1-1.4-2.8c0-1.2,0.1-2,0.3-2.3c0.2-0.3,0.8-0.5,1.9-0.5c0.8,0,1.7,0.5,2.5,1.4c1-0.9,2-1.4,2.8-1.4
			c0.9,0,1.3,0.4,1.3,1.3c0,0.5,0,1,0,1.3c0,0.4,0,0.9,0,1.3v0.7c0,0.5-0.4,1.1-1.1,1.7c0.8,0,1.1,1,1.1,2.9
			C162.9,60.9,162.8,61.5,162.7,62z"/>
	</g>
</g>
<g id="XMLID_1_">
	<path id="XMLID_2_" class="st2" d="M427.9,210.9c0,0.7-0.7,1-2.1,1c-0.2,0-0.3,0-0.5,0c-0.2,0-0.4,0-0.6,0c-0.5-0.2-0.8-0.5-1.1-1
		c-0.7,0.7-1.4,1-2.1,1c-1,0-1.5-0.3-1.6-0.8c0-1.7,0.1-3.2,0.2-4.4c0.2-0.4,0.5-0.6,0.9-0.8c-0.9-1-1.3-1.9-1.3-2.6
		c0-1.1,0.1-1.8,0.3-2.1c0.2-0.3,0.8-0.5,1.8-0.5c0.5,0,0.9,0.1,1.3,0.3c0.3,0.2,0.7,0.5,1.1,0.9c1-0.9,1.8-1.3,2.6-1.3
		c0.8,0,1.2,0.4,1.2,1.2c0,0.2,0,0.3,0,0.5c0,0.2,0,0.4-0.1,0.7c0,0.5,0,0.9,0,1.2c0,0.3,0,0.5,0,0.6c0,0.5-0.4,1-1.1,1.6
		c0.5,0,0.8,0.2,1,0.7c0.1,0.3,0.2,0.6,0.2,1c0,0.3,0,0.7,0,1c0,0.3,0,0.6,0,1C428.1,210.3,428,210.6,427.9,210.9z"/>
	<path id="XMLID_4_" class="st2" d="M443.6,209.5c0,0.9-0.3,1.6-0.8,2.1c-0.3,0.1-0.5,0.2-0.8,0.2c-0.3,0.1-0.5,0.1-0.8,0.1
		c-0.3,0-0.6-0.1-1-0.2l-0.8-0.8c-0.3,0.5-0.7,0.8-1.1,0.8h-4.1l-0.5-0.4v-7.7c0.1-0.6,0.3-1.3,0.8-1.9c-0.4-0.6-0.6-1.1-0.7-1.5
		c-0.1-0.5-0.1-0.9-0.1-1.4v-1.3l0.2-13.7c0.2-0.7,0.5-1.3,1-1.8c-0.7-0.6-1.1-1.2-1.2-1.8c-0.1-0.6-0.2-1.3-0.2-2.1
		c0-0.6,0-1.1,0.1-1.6c0.1-0.5,0.1-1,0.1-1.6c0-0.3,0-0.7,0-1.5c0-0.7,0-1.7,0-2.9V170c0-0.3,0.1-0.7,0.2-1.1c0.1-0.4,0.4-1,0.8-1.7
		c-0.7-0.4-1-1.2-1-2.4c0-0.4,0-1.1,0.1-2.3c0.1-1.2,0.1-2.8,0.1-4.8c0.2-0.4,0.4-0.6,0.7-0.6c0.5,0.1,0.9,0.1,1.2,0.1
		c0.3,0,0.5,0,0.6,0c0.7,0,1.3,0.1,1.7,0.2c0.4,0.1,0.8,0.4,1.2,1c0.8-0.9,1.7-1.3,2.7-1.3c0.2,0,0.6,0.1,1.1,0.2
		c0.3,0.2,0.5,0.5,0.6,0.8l-0.1,3.4c-0.2,0.3-0.4,0.7-0.7,1.3c0.5,0.3,0.7,0.6,0.7,0.8V182l-0.9,1.2c0.6,0.6,0.9,1.2,0.9,1.9
		c-0.1,2.4-0.1,4.9-0.1,7.4c0,2.5,0,5.1,0,7.7v5.9c-0.1,0.2-0.2,0.3-0.3,0.5c-0.1,0.2-0.2,0.4-0.3,0.6l-0.2-0.2l0.2,0.2
		c0.1,0.1,0.2,0.2,0.3,0.3c0.1,0.1,0.3,0.2,0.5,0.4V209.5z M455.9,187.7c0,0.4-0.2,0.6-0.6,0.7c-0.4,0.1-1,0.1-1.8,0.1
		c-0.3,0-0.8-0.2-1.4-0.7c-0.5,0.5-1.7,0.8-3.4,0.8c-0.4,0-0.7,0-1.1,0c-0.4,0-0.8,0-1.3-0.1l-0.2-0.4v-0.7c0-0.5,0-0.8,0-1.1
		c0-0.3,0-0.5,0-0.7c0-0.8,0.3-1.5,0.9-2.1c-0.4-0.3-0.7-0.6-0.7-1c-0.1-0.4-0.1-1-0.1-1.7c0-0.8,0.1-1.3,0.2-1.6
		c0.2-0.3,0.5-0.4,1.1-0.4c0.2,0,0.4,0,0.7,0c0.3,0,0.8,0,1.3,0h0.9l0.9,0.7c0.9-0.5,1.9-0.8,3-0.8c0.2,0,0.4,0,0.6,0
		c0.2,0,0.4,0,0.7,0.1h0.1c0.3,0,0.4,0.2,0.4,0.6c0,0.4,0,1,0,1.9c0,0.7-0.1,1.3-0.2,1.7c-0.1,0.4-0.5,0.7-1,1
		c0.8,0.9,1.1,1.8,1.1,2.9V187.7L455.9,187.7z M457.4,211.6c-0.6,0.2-1.1,0.3-1.5,0.3c-2.1,0-3.4-0.3-3.8-0.9
		c-0.6,0.6-1.4,0.9-2.4,0.9c-0.3,0-0.6,0-1,0c-0.4,0-0.9,0-1.4,0h-0.9c-0.3-0.3-0.5-0.6-0.5-1.1c0-0.1,0-0.3,0-0.6
		c0-0.3,0-0.7,0-1.3c0.2-0.6,0.6-1.1,1.2-1.5c-0.4-0.2-0.7-0.4-1.1-0.8c-0.1-0.3-0.1-0.6-0.1-0.8s0-0.5,0-0.7c0-1.6,0.5-2.5,1.4-2.8
		c0.3,0.1,0.5,0.1,0.8,0.1c0.3,0,0.5,0,0.8,0c0.4,0,0.7,0,0.9,0c0.2,0,0.4,0,0.7,0c0.8,0,1.5,0.3,2.1,0.8c0.6-0.6,1.7-0.8,3.1-0.8
		c0.2,0,0.4,0,0.7,0c0.2,0,0.5,0,0.7,0c0.3,0.9,0.4,1.7,0.4,2.4c0,0.5,0,0.8-0.1,1.1c0,0.4-0.1,0.6-0.4,0.7
		c-0.3,0.1-0.4,0.2-0.4,0.4c0,0.2,0.2,0.3,0.5,0.3c0.1,0.5,0.2,1,0.3,1.5c0.1,0.5,0.1,1,0.1,1.6c0,0.3,0,0.5,0,0.8
		C457.5,211.1,457.5,211.3,457.4,211.6z M456.9,157.7c0.1,0.3,0.1,0.6,0.1,0.9c0,0.3,0,0.5,0,0.8c0,1.5-0.4,2.4-1.1,2.7
		c0.4,0.2,0.7,0.4,0.8,0.7c0.1,0.3,0.2,0.6,0.2,1c0,0.1,0,0.3,0,0.6c0,0.3,0,0.7,0,1.1v0.7c-0.3,0.3-0.6,0.6-1.1,0.8l-0.2-0.1h-2.1
		c-0.7,0-1.2-0.3-1.5-0.9c-0.3,0.4-0.7,0.7-1.1,0.9h-4l-0.5-0.5c-0.1-0.3-0.1-0.5-0.1-0.7c0-0.2,0-0.5,0-0.7c0-0.7,0.1-1.5,0.4-2.4
		l0.6-0.5c-0.6-0.5-0.9-0.9-1-1.3c0-1,0-1.8,0.1-2.4c0.1-0.6,0.3-0.9,0.6-1.1c0.3-0.1,0.5-0.1,0.8-0.1c0.3,0,0.5,0,0.8,0
		c1.2,0,2.4,0.2,3.6,0.5l0.5,0.5c0.9-0.7,1.9-1,2.8-1c0.3,0,0.6,0.1,1.1,0.2L456.9,157.7z"/>
	<path id="XMLID_9_" class="st2" d="M473.4,205.9c-0.1,0.4-0.2,0.6-0.3,0.8c-0.2,0.2-0.3,0.3-0.3,0.4c0,0.1,0.1,0.1,0.2,0.2
		c0.2,0.4,0.3,0.7,0.4,1c0.1,0.3,0.1,0.6,0.1,0.8c0,0.3,0,0.6-0.1,0.8s-0.1,0.4-0.1,0.7c0,0.2,0,0.3,0,0.5c0,0.2,0,0.4,0,0.6
		c0,0.2-0.1,0.4-0.4,0.6c-0.2,0-0.3,0.1-0.4,0.1c-0.1,0-0.3,0-0.4,0c-0.7,0-1.4-0.2-2-0.5c-0.6-0.3-1-0.7-1.1-1l-0.2-0.5
		c-0.2,0.1-0.4,0.1-0.8,0.1c-0.3,0-0.5,0-0.7-0.1c-1.8-1.6-3.1-3.2-4-5c-0.9-1.7-1.3-3.5-1.3-5.3c0-0.3,0.1-0.7,0.4-1.1
		c-0.6-0.4-0.9-1.2-1.1-2.5c-0.2-1.3-0.3-3.1-0.3-5.5c0-0.9,0-2.1,0.1-3.6c0.1-1.5,0.2-3.3,0.3-5.5c0.1-0.1,0.4-0.3,0.8-0.5
		c-0.7-0.7-1-1.5-1-2.5v-2.9c0.1-1.9,0.2-3.5,0.2-4.6c0-1.1,0.5-1.9,1.4-2.5c-0.1-0.2-0.2-0.3-0.3-0.4c-0.1-0.1-0.2-0.2-0.2-0.3
		c0-0.4,0.1-0.8,0.2-1.3c0.4-2.1,1.2-4.2,2.5-6.1c2-1.5,3.1-2.2,3.1-2.2c0,0.1-0.5,0.6-1.5,1.5c-0.1-0.1-0.1-0.3-0.1-0.5
		c0-0.3,0-0.5,0.1-0.6c2.5-1.8,4.3-2.7,5.5-2.7c0.9,0,1.4,0.4,1.5,1.1c0,0.4,0,0.8,0,1.2c0,0.4-0.1,0.8-0.1,1.2l-0.8,0.8
		c0.3,0.2,0.6,0.4,0.9,0.8l-0.1,4.4c0,0.4-0.3,0.9-0.8,1.6c-0.5,0.6-0.8,1.6-0.9,2.9c-0.2,0.6-0.3,1.2-0.3,2v0.6
		c-0.5,0.4-1,0.6-1.5,0.7c0.9,0.4,1.3,1.4,1.3,3.2c0,0.3,0,0.5,0,0.8c0,0.3,0,0.6-0.1,0.9l-0.2,3.1l0.1,1.1l0.2,10.2
		c-0.2,0.3-0.4,0.6-0.6,0.9c-0.2,0.3-0.4,0.6-0.7,0.8c0.2,0.1,0.4,0.2,0.6,0.3c0.2,0.1,0.3,0.2,0.4,0.3c0.2,0.1,0.3,0.2,0.3,0.2
		c0.3,1.8,0.5,3.2,0.8,4.3c0.3,1.1,0.7,1.8,1.1,2.2c0.2,0.8,0.3,1.7,0.3,2.8V205.9z M486.6,168.7c0.6,0.3,0.9,0.8,1.1,1.6
		c0.2,0.8,0.3,2,0.3,3.4c0,0.7-0.2,1.2-0.6,1.4c-0.4,0.2-1.1,0.3-2.1,0.3c-0.6,0-1.2-0.2-1.8-0.6c-0.3,0.2-0.4,0.4-0.5,0.5l-4.1,0.1
		c-0.5-0.1-0.8-0.7-0.8-1.8c0-0.3,0-0.5,0-0.8c0-0.3,0-0.5,0-0.8c0.3-0.5,0.6-0.9,0.8-1.3H479c-0.5,0-0.8-0.3-1-1
		c-0.2-0.7-0.5-1.6-0.9-2.9c-0.5-0.6-0.8-1-0.9-1.2c-0.1-0.3-0.2-0.7-0.2-1.2c0-0.1,0-0.3,0-0.7c0-0.4,0-0.8,0.1-1.4
		c0.2-0.4,0.5-0.7,1-0.8c-0.5-0.3-0.8-0.5-0.9-0.8c-0.1-0.3-0.2-0.7-0.2-1.2v-0.8c0-1.5,0.4-2.2,1.1-2.2c0.3,0,0.6,0.1,1,0.2
		c0.7,0,1.3,0.1,1.9,0.4c0.5,0.3,1.1,0.6,1.6,1.1l0.2,0.5c0.2-0.2,0.4-0.2,0.5-0.2c0.3,0,0.6,0.1,1,0.4c0.4,0.3,0.8,0.7,1.2,1.3
		c0.1,0.3,0.4,0.5,0.8,0.8c1.2,2,2,4.2,2.3,6.6C487.3,167.8,487.1,168.2,486.6,168.7z M488.3,194.4c0,2.4-0.3,4.5-1,6.4l-0.7,0.7
		c0.5,0.2,0.8,0.5,0.8,0.9c0,0.6-0.2,1.5-0.6,2.7c-0.9,1.9-1.8,3.4-2.5,4.4c-0.7,1-1.5,1.5-2.4,1.5c-0.3,0-0.6-0.1-0.9-0.2
		c-0.2,0.8-0.6,1.3-1.2,1.5c-0.6,0.3-1.3,0.5-2.1,0.5c-0.7,0-1.2-0.2-1.5-0.5l0.1-2.9l1.2-1.4c-0.9-0.7-1.4-1.4-1.4-2.2
		c0-0.2,0-0.3,0-0.5c0-0.2,0-0.3,0-0.5v-0.8c0-0.2,0.1-0.4,0.4-0.7c0.5-0.3,0.8-0.7,1-1.1c0.2-0.4,0.3-0.9,0.5-1.4
		c0.2-0.5,0.3-1,0.5-1.5c0.2-0.5,0.5-1,0.9-1.4c-0.2-0.1-0.5-0.4-0.8-0.9v-1.4c0-1,0.1-1.8,0.2-2.2c0.1-0.5,0.4-0.7,0.8-0.7h0.1
		c0.3-0.1,0.5-0.1,0.8-0.1s0.5,0,0.8,0c0.3,0,0.5,0,0.8,0s0.5,0,0.8,0.1l1,0.5l0.5,0.5c0.2-0.6,0.6-0.9,1.3-1.1c0.2,0,0.4,0,0.6,0
		c0.2,0,0.4,0,0.6,0c0.2,0,0.4,0,0.6,0c0.2,0,0.4,0,0.6,0c0.3,0,0.4,0.2,0.5,0.6V194.4z"/>
</g>
</svg>
